<svg xmlns="http://www.w3.org/2000/svg" viewBox="0 0 717.91 717.91"><defs><style>.cls-1{fill:#ff0;}</style></defs><g id="Layer_2" data-name="Layer 2"><g id="Layer_1-2" data-name="Layer 1"><circle cx="358.95" cy="358.95" r="358.95"/><path class="cls-1" d="M527.6,175.49H332.76L293.92,223a0,0,0,0,1-.05,0L255,175.5H189.38a239.52,239.52,0,0,0-71.14,170.65c0,132.69,107.57,240.26,240.26,240.26S598.76,478.84,598.76,346.15A239.52,239.52,0,0,0,527.62,175.5ZM354.84,550.4C248,554,159.27,466.8,161.09,359.92a186.72,186.72,0,0,1,55.45-129.78h51.19l30.27,37h.05l30.27-37H480.25a186.78,186.78,0,0,1,55.46,133C535.71,464.48,455.3,547,354.84,550.4Z"/><path class="cls-1" d="M462.6,353.85c12.44-21.55,4.45-54.67-19.8-67a49.47,49.47,0,0,0-67,19.8c-12.27,21.24-4.72,54.44,19.8,67C417.14,386.09,450.27,378.11,462.6,353.85ZM406,354.5A27.61,27.61,0,0,1,432.39,306c11.86,6.77,18.92,22.47,11.06,37.44C437,355.57,420.44,361.91,406,354.5Z"/><path class="cls-1" d="M328.12,318.24A49.82,49.82,0,0,0,304,288.41c-21.86-12.62-55.48-4.52-68,20.09-12.76,21.57-4.5,55.48,20.09,68a50.14,50.14,0,0,0,72-58.25Zm-61.61,39.1c-12.45-6.62-19-23.61-11.36-38.43,6.61-12.44,23.61-19,38.42-11.35,12.18,6.95,19.43,23.06,11.36,38.42a28.36,28.36,0,0,1-38.42,11.36Z"/><path class="cls-1" d="M378.65,480.56a10.9,10.9,0,0,0,20.46,7.55,50.13,50.13,0,1,0-57,31.82,10.9,10.9,0,1,0,4.35-21.36,28.34,28.34,0,1,1,32.22-18Z"/></g></g></svg>